#!OML:ASF E:\Mandelcareful walks\Project 1\Capture day 1\Session 1\Subject1.ASF
:FULLY-SPECIFIED
:DEGREES
427
root -4.45391 16.7257 1.01708 129.092 81.5321 121.113
lowerback 21.5677 1.26247 -2.54613
upperback 5.18686 1.43456 -0.338665
thorax -6.42651 0.881558 0.688943
lowerneck -26.492 5.79701 1.53895
upperneck 27.854 11.5031 -9.41672
head 14.8467 3.85472 -1.71443
rclavicle -2.74323e-014 -9.54166e-015
rhumerus -18.1457 22.5902 -89.3604
rradius 42.9986
rwrist -17.5723
rhand -15.1816 -34.5231
rfingers 7.12502
rthumb 10.9896 -64.2154
lclavicle -2.74323e-014 -9.54166e-015
lhumerus -32.2948 -12.3895 91.5097
lradius 34.348
lwrist 20.4969
lhand -22.4424 -11.7057
lfingers 7.12502
lthumb 3.98155 18.2368
rfemur -19.1314 -16.1111 9.79292
rtibia 33.1315
rfoot -18.3298 -10.2661
rtoes 3.56719
lfemur -15.6933 5.73784 -16.8299
ltibia 22.7837
lfoot -12.0106 11.242
ltoes -11.0701
428
root -4.43707 16.733 1.00765 132.67 81.2566 124.644
lowerback 21.4729 1.3343 -2.46992
upperback 5.12771 1.54335 -0.334289
thorax -6.44357 0.932277 0.622452
lowerneck -26.5833 6.12179 1.84928
upperneck 28.1471 12.0348 -9.72304
head 15.0909 4.05968 -1.77649
rclavicle 1.63003e-014 -3.10104e-014
rhumerus -18.294 22.2718 -89.4475
rradius 42.6966
rwrist -17.3353
rhand -15.2526 -34.594
rfingers 7.12502
rthumb 10.9211 -64.29
lclavicle 1.63003e-014 -3.10104e-014
lhumerus -32.4192 -12.5985 91.5279
lradius 34.3176
lwrist 20.9066
lhand -22.7809 -12.4033
lfingers 7.12502
lthumb 3.65466 17.5451
rfemur -18.8168 -16.2253 9.8121
rtibia 32.889
rfoot -18.2315 -10.5882
rtoes 3.67678
lfemur -15.7614 5.42453 -16.7799
ltibia 22.704
lfoot -11.9621 10.9808
ltoes -10.6243
429
root -4.41894 16.7403 1.00029 135.019 81.0173 126.971
lowerback 21.3401 1.46629 -2.57027
upperback 5.09147 1.69625 -0.303234
thorax -6.42181 1.00641 0.675058
lowerneck -26.4305 6.36812 2.03193
upperneck 28.1974 12.4208 -9.92557
head 15.1459 4.22272 -1.80775
rclavicle 2.0276e-014 -9.54166e-015
rhumerus -18.4438 22.0348 -89.5026
rradius 42.2284
rwrist -16.8047
rhand -15.3048 -34.2924
rfingers 7.12502
rthumb 10.8708 -63.991
lclavicle 2.0276e-014 -9.54166e-015
lhumerus -32.5499 -12.7017 91.5373
lradius 34.3099
lwrist 21.2768
lhand -22.7039 -13.2291
lfingers 7.12502
lthumb 3.72902 16.7181
rfemur -18.5609 -16.1403 9.79765
rtibia 32.6979
rfoot -18.1803 -11.089
rtoes 3.67074
lfemur -15.7743 5.23565 -16.7724
ltibia 22.6399
lfoot -11.9362 10.7709
ltoes -10.5361
430
root -4.40232 16.7453 0.992663 137.133 80.7272 129.044
lowerback 21.0727 1.57438 -2.66569
upperback 5.09988 1.8213 -0.344117
thorax -6.27832 1.06655 0.659396
lowerneck -26.0926 6.55543 2.26981
upperneck 28.0342 12.5827 -9.96927
head 15.0326 4.33295 -1.83396
rclavicle 5.96354e-015 1.19271e-014
rhumerus -18.4782 21.7127 -89.649
rradius 41.6323
rwrist -16.3786
rhand -15.6054 -33.5375
rfingers 7.12502
rthumb 10.5808 -63.2511
lclavicle 5.96354e-015 1.19271e-014
lhumerus -32.4016 -12.8116 91.4111
lradius 34.1122
lwrist 21.2552
lhand -22.27 -13.2473
lfingers 7.12502
lthumb 4.14809 16.6921
rfemur -18.3868 -16.0948 9.74663
rtibia 32.5428
rfoot -18.1675 -11.5654
rtoes 1.60447
lfemur -15.8336 5.05203 -16.817
ltibia 22.621
lfoot -11.928 10.6322
ltoes -10.8425
431
root -4.38741 16.7461 0.980064 139.23 80.4259 131.074
lowerback 20.8089 1.6205 -2.6947
upperback 5.09508 1.87871 -0.392143
thorax -6.14673 1.09302 0.616414
lowerneck -25.87 6.68888 2.5059
upperneck 27.8863 12.696 -10.081
head 14.9554 4.40711 -1.89637
rclavicle -1.15295e-014 -3.10104e-014
rhumerus -18.4931 21.3387 -89.8084
rradius 41.2563
rwrist -16.2278
rhand -15.4577 -33.4089
rfingers 7.12502
rthumb 10.7233 -63.1152
lclavicle -1.15295e-014 -3.10104e-014
lhumerus -32.3345 -12.8899 91.2889
lradius 34.0586
lwrist 20.9555
lhand -22.1611 -12.6958
lfingers 7.12502
lthumb 4.25321 17.2415
rfemur -18.1963 -16.1215 9.66907
rtibia 32.3955
rfoot -18.3613 -11.7221
rtoes 1.67689
lfemur -15.9303 4.75586 -16.8661
ltibia 22.6141
lfoot -11.9454 10.5859
ltoes -10.9607
432
root -4.37214 16.7446 0.9666 140.861 80.1353 132.661
lowerback 20.607 1.65264 -2.76624
upperback 5.09339 1.90904 -0.430671
thorax -6.04457 1.10746 0.613493
lowerneck -25.9144 6.75542 2.69565
upperneck 27.8998 12.7888 -10.2589
head 15.0118 4.44104 -1.97883
rclavicle 2.62396e-014 7.95139e-015
rhumerus -18.4877 20.994 -89.9619
rradius 40.9645
rwrist -16.017
rhand -14.7507 -34.024
rfingers 7.12502
rthumb 11.4052 -63.6938
lclavicle 2.62396e-014 7.95139e-015
lhumerus -32.3414 -12.8298 91.1608
lradius 34.0754
lwrist 20.7541
lhand -22.2271 -12.1815
lfingers 7.12502
lthumb 4.18945 17.757
rfemur -17.9321 -16.2522 9.55629
rtibia 32.2297
rfoot -18.5666 -11.6884
rtoes 3.02684
lfemur -15.998 4.45259 -16.9417
ltibia 22.6044
lfoot -11.938 10.4936
ltoes -10.9182
433
root -4.35556 16.7467 0.956817 142.318 79.9781 134.146
lowerback 20.4534 1.71005 -2.83591
upperback 5.08787 1.97238 -0.450193
thorax -5.9735 1.13802 0.620303
lowerneck -25.7727 6.80601 2.93504
upperneck 27.7583 12.7818 -10.3828
head 14.9469 4.4584 -2.07154
rclavicle -3.22031e-014 3.18055e-014
rhumerus -18.4621 20.6841 -90.1677
rradius 40.4512
rwrist -15.7419
rhand -14.6074 -33.8849
rfingers 7.12502
rthumb 11.5434 -63.547
lclavicle -3.22031e-014 3.18055e-014
lhumerus -32.2521 -12.6015 90.9649
lradius 33.8045
lwrist 20.538
lhand -21.943 -12.2586
lfingers 7.12502
lthumb 4.46378 17.6744
rfemur -17.6353 -16.3863 9.57215
rtibia 32.035
rfoot -18.5755 -11.74
rtoes 3.23539
lfemur -15.9753 4.31864 -16.9101
ltibia 22.5865
lfoot -11.8855 10.3894
ltoes -11.3113
